<?xml version="1.0" standalone="no"?>
<!DOCTYPE svg PUBLIC "-//W3C//DTD SVG 20010904//EN"
 "http://www.w3.org/TR/2001/REC-SVG-20010904/DTD/svg10.dtd">
<svg version="1.0" xmlns="http://www.w3.org/2000/svg"
 width="4218.000000pt" height="4500.000000pt" viewBox="0 0 4218.000000 4500.000000"
 preserveAspectRatio="xMidYMid meet">
<metadata>
Created by potrace 1.10, written by Peter Selinger 2001-2011
</metadata>
<g transform="translate(0.000000,4500.000000) scale(0.100000,-0.100000)"
fill="#000000" stroke="none">
<path d="M6455 40821 c-86 -7 -123 -13 -280 -47 -90 -19 -245 -65 -317 -93
-137 -53 -195 -79 -298 -131 -41 -20 -91 -47 -110 -59 -19 -11 -41 -24 -49
-28 -28 -13 -223 -149 -270 -188 -243 -200 -401 -372 -551 -599 -8 -13 -39
-63 -68 -112 -29 -49 -57 -96 -62 -104 -24 -39 -110 -227 -110 -241 0 -6 -6
-23 -14 -37 -32 -58 -120 -362 -133 -457 -2 -16 -11 -68 -20 -115 -13 -66 -17
-148 -17 -360 0 -280 5 -334 50 -545 30 -139 106 -390 125 -410 5 -5 9 -15 9
-22 0 -13 53 -135 71 -163 5 -8 12 -22 15 -30 3 -8 10 -22 15 -30 5 -8 15 -28
24 -45 20 -42 55 -102 90 -155 33 -50 204 -282 214 -290 4 -3 38 -39 76 -80
136 -145 278 -267 448 -383 38 -26 70 -47 72 -47 2 0 23 -12 47 -27 24 -16 52
-34 63 -40 35 -22 198 -100 255 -123 30 -12 63 -26 72 -31 9 -4 68 -25 130
-44 316 -101 471 -125 808 -125 244 0 337 8 520 46 129 26 406 110 416 126 3
4 14 8 24 8 10 0 31 7 47 15 15 8 75 37 133 65 107 51 113 55 188 103 24 15
45 27 47 27 13 0 230 158 300 218 240 208 491 516 600 737 15 29 23 44 45 83
6 9 13 24 16 32 4 8 19 43 35 78 16 34 29 67 29 73 0 6 6 23 14 37 34 67 120
362 133 457 2 17 11 68 20 115 22 111 24 612 3 705 -7 33 -16 85 -20 115 -15
111 -101 419 -136 482 -7 14 -14 31 -14 37 0 11 -82 193 -100 221 -5 8 -20 36
-34 62 -14 26 -43 74 -63 105 -21 32 -42 66 -48 75 -122 202 -364 457 -610
639 -158 118 -233 164 -385 240 -88 44 -151 71 -278 120 -72 28 -227 74 -317
93 -209 45 -230 47 -495 51 -146 2 -305 0 -355 -4z m-70 -2094 c94 -22 151
-62 186 -129 39 -75 18 -180 -48 -238 -40 -36 -87 -60 -116 -60 -14 0 -32 -3
-41 -6 -19 -7 -11 -24 10 -24 23 0 135 -58 159 -83 59 -60 79 -140 60 -242
-18 -97 -70 -155 -171 -192 -43 -16 -85 -18 -324 -18 -171 0 -277 4 -280 10
-3 5 9 12 25 15 l30 5 0 475 c0 467 0 475 -20 478 -36 6 -46 12 -39 23 10 17
491 5 569 -14z m907 -14 c20 -51 38 -101 48 -138 5 -16 14 -46 21 -65 6 -19
17 -51 24 -70 7 -19 18 -51 24 -70 7 -19 16 -48 21 -65 5 -16 13 -43 19 -60 7
-16 39 -113 72 -215 92 -284 85 -268 125 -272 19 -2 34 -7 34 -13 0 -6 -70
-10 -190 -10 -120 0 -190 4 -190 10 -1 6 14 12 32 15 18 3 32 10 31 15 -4 17
-25 79 -39 113 -8 18 -14 39 -14 46 0 7 -9 34 -20 60 l-21 46 -130 0 c-90 0
-128 3 -124 11 5 6 45 10 109 9 55 -1 107 -1 115 -1 16 1 11 66 -9 121 -7 19
-18 51 -25 70 -7 19 -18 51 -24 70 -7 19 -16 50 -21 68 -9 38 -36 82 -50 82
-6 0 -10 -15 -10 -34 0 -19 -7 -41 -15 -50 -8 -8 -15 -28 -15 -43 0 -16 -7
-38 -15 -49 -8 -10 -15 -31 -15 -45 0 -14 -7 -34 -15 -45 -8 -10 -15 -33 -15
-51 0 -17 -5 -35 -11 -39 -6 -3 -9 -20 -6 -37 3 -24 -1 -36 -19 -50 -16 -12
-24 -29 -24 -51 0 -17 -6 -40 -14 -51 -20 -29 -30 -119 -16 -144 6 -13 21 -21
35 -21 16 0 25 -6 25 -15 0 -12 -18 -15 -105 -15 -85 0 -105 3 -105 14 0 8 12
16 27 18 34 4 93 78 93 116 0 15 7 36 15 46 8 11 15 32 15 47 0 15 7 34 15 43
8 8 15 28 15 45 0 16 7 36 15 45 8 8 15 28 15 43 0 16 7 38 15 49 8 10 15 31
15 45 0 14 7 34 15 45 8 10 15 31 15 45 0 14 7 34 15 45 8 10 15 31 15 45 0
14 7 34 15 45 8 10 15 29 15 42 0 13 5 33 12 45 6 12 15 35 19 52 4 16 13 46
20 65 29 84 25 80 77 80 47 0 50 -1 64 -37z"/>
<path d="M6136 38712 c-8 -13 -9 -389 -2 -401 4 -6 35 -11 70 -11 55 0 65 3
87 28 34 36 49 93 49 181 0 154 -39 211 -144 211 -30 0 -57 -4 -60 -8z"/>
<path d="M6135 38260 c-3 -5 -6 -116 -6 -245 0 -129 3 -240 6 -245 3 -6 39
-10 80 -10 71 0 74 1 104 35 l31 36 0 175 c0 193 -6 215 -60 248 -31 18 -145
23 -155 6z"/>
</g>
</svg>
